<?xml version="1.0" standalone="no"?>
<!DOCTYPE svg PUBLIC "-//W3C//DTD SVG 20010904//EN"
 "http://www.w3.org/TR/2001/REC-SVG-20010904/DTD/svg10.dtd">
<svg version="1.0" xmlns="http://www.w3.org/2000/svg"
 width="700.000000pt" height="700.000000pt" viewBox="0 0 700.000000 700.000000"
 preserveAspectRatio="xMidYMid meet">
<metadata>
Created by potrace 1.14, written by Peter Selinger 2001-2017
</metadata>
<g transform="translate(0.000000,700.000000) scale(0.100000,-0.100000)"
fill="#000000" stroke="none">
<path d="M3280 6994 c-19 -2 -84 -9 -145 -14 -578 -56 -1180 -283 -1660 -625
-237 -169 -531 -446 -709 -670 -416 -521 -673 -1147 -748 -1820 -17 -155 -17
-575 0 -730 52 -469 198 -931 418 -1327 290 -523 731 -983 1239 -1294 439
-269 920 -432 1460 -496 145 -17 576 -17 730 0 822 91 1556 447 2131 1034 203
206 348 390 487 618 274 449 433 916 499 1465 16 136 16 592 0 730 -86 725
-352 1347 -803 1885 -122 145 -351 370 -494 484 -510 407 -1117 661 -1775 742
-117 15 -553 27 -630 18z m-215 -2279 c206 -36 420 -161 519 -303 l27 -40 72
72 c123 123 294 213 486 257 110 25 355 36 471 20 245 -33 391 -101 546 -256
122 -121 202 -270 254 -475 47 -184 50 -243 50 -1113 l0 -817 -322 2 -323 3
-6 825 c-5 866 -5 860 -50 1000 -38 117 -124 222 -217 263 -110 50 -290 55
-412 12 -132 -47 -228 -149 -280 -301 -47 -133 -50 -199 -50 -1026 l0 -778
-325 0 -325 0 0 750 c0 465 -4 787 -11 846 -23 212 -74 339 -169 427 -68 64
-134 92 -248 108 -187 26 -380 -32 -519 -157 l-63 -56 -2 -956 -3 -957 -325 0
-325 0 -3 1313 -2 1312 279 0 280 0 6 -42 c3 -24 9 -71 13 -104 l7 -62 75 45
c168 100 350 171 495 192 100 14 306 12 400 -4z"/>
</g>
</svg>
